{"glyphs":{":":{"x_min":0,"x_max":266,"ha":266,"o":"m 65 41 q 65 51 76 65 q 86 79 111 100 q 125 112 133 118 q 141 124 154 130 q 166 135 170 135 q 204 135 212 92 q 214 80 214 74 q 214 63 211 51 q 203 23 184 5 q 164 -13 136 -17 q 106 -21 86 -4 q 65 14 65 41 z m 104 288 q 104 298 114 312 q 125 326 150 347 q 164 359 172 365 q 180 371 192 376 q 204 382 210 382 q 244 382 252 339 q 253 334 253 324 q 253 311 250 299 q 242 271 222 252 q 202 234 175 230 q 145 226 124 244 q 104 261 104 288 z"},"$":{"x_min":0,"x_max":537,"ha":537,"o":"m 65 63 q 75 61 85 60 q 95 59 108 59 q 119 59 130 59 q 141 59 147 59 q 156 59 160 59 q 206 59 220 64 l 227 66 l 237 69 l 244 99 l 252 131 l 265 198 l 269 223 l 275 261 l 280 290 l 282 307 l 283 315 l 284 325 l 271 333 l 245 349 q 201 376 182 395 q 158 418 144 442 q 131 467 128 484 q 126 500 126 514 q 126 552 144 584 q 162 616 202 644 q 241 671 281 678 q 305 681 323 684 q 341 688 341 697 q 341 704 340 716 q 338 727 338 732 q 338 766 363 766 q 380 766 382 751 l 385 718 l 387 699 l 441 703 q 477 707 524 707 q 551 707 551 669 q 551 642 530 626 q 510 609 454 593 q 435 589 425 588 q 415 588 409 588 l 414 594 l 419 599 q 431 611 451 621 q 442 623 432 623 q 421 623 415 623 q 403 623 391 620 q 379 617 372 615 l 358 537 l 357 527 l 348 451 q 345 434 343 418 q 343 409 353 401 q 359 396 393 373 l 413 358 q 444 333 463 311 q 482 289 493 265 q 519 208 519 169 q 519 79 373 30 l 350 23 q 294 9 282 -1 q 270 -11 270 -46 l 273 -67 q 275 -74 268 -76 q 260 -79 252 -79 q 227 -79 219 -58 l 228 -18 q 229 -14 229 -6 q 229 2 227 6 l 205 1 l 161 4 q 111 8 92 20 q 72 33 65 63 z m 264 588 q 228 572 228 533 q 228 516 236 499 q 243 482 259 465 q 275 448 302 435 l 313 510 l 322 577 l 324 591 l 326 606 l 286 596 z m 330 101 q 404 137 404 187 q 404 217 384 250 q 363 283 345 291 q 339 294 332 292 q 327 290 325 286 l 317 237 q 308 174 306 152 q 304 130 304 103 q 304 94 304 88 l 311 91 z"},"?":{"x_min":0,"x_max":475,"ha":475,"o":"m 160 30 q 160 40 162 45 q 168 62 196 94 q 212 114 236 132 q 244 138 254 138 q 285 138 297 102 q 303 87 303 71 q 303 64 301 48 q 299 32 282 12 q 266 -9 239 -18 q 228 -21 218 -21 q 194 -21 177 -7 q 160 7 160 30 z m 260 189 l 250 192 q 238 197 232 204 q 227 210 227 220 q 227 237 245 266 q 263 296 305 346 l 312 354 l 331 373 l 366 407 q 380 421 390 433 q 399 445 408 460 q 418 476 422 490 q 426 505 426 521 q 426 560 401 591 q 376 622 336 630 q 320 632 312 632 q 271 632 229 610 q 197 592 184 574 q 170 555 170 528 l 169 507 l 169 500 q 169 492 163 485 q 157 478 149 478 q 142 478 138 482 q 134 485 131 491 q 128 497 124 510 q 120 524 120 541 q 120 572 131 611 q 168 735 291 735 q 309 735 330 732 q 404 721 452 679 q 499 637 512 571 q 518 544 518 522 q 518 454 417 375 l 392 355 q 327 301 302 268 q 276 236 260 189 z"},"a":{"x_min":0,"x_max":535,"ha":535,"o":"m 325 117 l 301 89 q 262 44 238 24 q 213 4 183 -9 q 133 -29 105 -29 q 64 -29 41 -9 q 18 11 22 40 q 25 59 33 82 l 44 112 l 24 94 q 18 88 9 90 q 0 92 -2 101 q -5 111 -1 121 q 3 131 17 145 l 48 177 l 62 190 l 108 233 l 123 247 q 147 268 176 289 q 205 310 230 325 q 282 355 320 368 q 357 382 384 382 q 416 382 429 362 q 432 358 431 352 q 430 346 426 344 q 419 340 410 336 q 402 332 386 329 q 371 326 338 310 q 304 295 257 264 q 226 242 204 224 q 183 207 170 192 q 125 142 113 104 q 111 99 111 90 q 111 63 138 60 q 155 60 172 68 q 189 76 220 100 q 231 110 235 113 q 249 126 266 144 l 288 170 q 346 245 362 262 q 382 283 400 283 q 408 282 412 282 q 448 277 448 241 q 448 234 447 230 q 441 195 426 166 l 417 137 q 411 101 411 87 q 411 72 418 59 q 424 46 440 52 q 451 58 461 65 q 471 72 494 94 l 506 105 q 528 131 536 138 q 544 144 553 142 q 561 141 565 135 q 569 129 567 121 q 562 105 550 90 q 532 71 517 55 q 491 29 445 3 q 433 -4 422 -7 q 410 -10 399 -10 q 348 -10 333 37 q 331 45 330 56 q 329 66 329 96 l 331 123 z"},"L":{"x_min":0,"x_max":464,"ha":464,"o":"m 157 402 q 141 418 141 431 q 141 440 144 456 q 148 472 151 486 l 162 535 l 166 549 q 179 598 190 624 q 214 681 226 698 q 238 716 257 722 q 276 728 290 728 q 332 728 332 695 q 332 655 321 613 l 288 474 l 242 324 q 213 232 204 190 q 196 149 196 95 q 205 86 214 82 q 223 79 241 79 q 268 79 320 86 q 373 92 400 103 l 474 130 q 481 132 486 123 q 491 114 491 94 q 491 62 476 50 q 460 37 400 20 l 325 -1 l 251 -15 l 238 -16 l 181 -21 q 161 -22 142 -24 q 117 -24 108 -14 q 98 -3 98 26 q 98 57 104 104 q 112 150 116 180 q 119 211 126 248 q 134 286 138 310 l 148 361 z"},"3":{"x_min":0,"x_max":583,"ha":583,"o":"m 141 34 l 175 47 l 246 79 q 310 111 338 128 q 365 146 410 185 q 443 212 443 237 q 443 258 418 274 q 374 301 340 306 q 307 310 285 322 q 263 335 263 354 q 263 367 274 383 q 298 418 321 444 l 380 511 q 417 551 424 561 q 431 571 437 593 q 403 603 362 603 q 339 603 327 601 l 307 599 l 271 594 l 219 587 q 201 585 194 585 q 174 585 164 592 q 154 599 148 614 q 141 630 141 643 q 141 667 156 682 q 172 698 197 698 l 285 698 l 380 693 l 384 693 q 430 688 467 680 q 504 671 524 652 q 545 633 545 608 q 545 587 530 566 q 501 523 446 464 l 427 445 q 392 410 386 402 q 379 394 376 375 q 385 370 397 364 q 401 362 429 349 l 433 347 l 488 326 l 517 314 q 579 285 579 238 q 579 205 544 168 q 510 131 460 100 q 409 70 318 34 l 289 23 q 228 3 194 3 q 157 3 141 34 z"},";":{"x_min":0,"x_max":297,"ha":297,"o":"m 43 -151 q 55 -126 70 -106 q 84 -85 117 -49 q 120 -46 123 -38 q 130 -23 134 -10 q 103 6 103 35 q 103 62 128 88 q 139 100 154 108 q 168 117 178 120 q 188 122 197 122 q 220 122 235 107 q 250 92 250 68 q 250 52 244 38 q 238 25 217 -7 q 196 -39 152 -82 q 107 -126 43 -151 z m 132 288 q 132 298 142 312 q 153 326 178 347 q 192 359 200 365 q 208 371 220 376 q 233 382 237 382 q 271 382 279 339 q 281 327 281 322 q 281 310 278 299 q 270 271 250 252 q 230 234 203 230 q 173 226 152 244 q 132 261 132 288 z"},"J":{"x_min":0,"x_max":401,"ha":401,"o":"m 271 654 q 292 688 328 710 q 379 740 405 740 q 428 740 432 716 q 435 691 436 680 q 436 670 436 659 q 436 650 436 642 q 434 630 434 624 q 422 498 413 444 q 404 390 379 303 l 377 294 l 323 139 q 285 28 268 8 q 252 -11 184 -18 q 176 -19 167 -19 q 158 -19 153 -19 q 145 -19 141 -19 q 136 -19 131 -19 q 124 -17 120 -17 l 107 4 q 62 82 51 130 l 39 195 q 36 209 35 222 q 34 235 34 248 q 34 296 75 302 q 99 305 113 293 q 127 281 139 246 l 146 223 l 151 209 q 160 182 160 172 q 160 162 142 145 q 138 141 138 134 q 138 124 146 112 q 154 101 173 87 q 179 83 183 83 q 197 83 213 110 q 233 143 256 210 q 268 243 286 326 l 299 392 l 300 399 l 314 534 q 318 567 318 569 q 319 579 319 596 q 319 629 310 640 q 300 651 271 654 z"},"V":{"x_min":0,"x_max":565,"ha":565,"o":"m 339 132 l 373 191 q 409 255 438 322 q 467 389 493 469 q 507 511 512 527 q 517 543 523 566 q 542 638 562 669 q 583 700 610 700 q 616 700 632 694 q 649 689 647 677 l 613 549 q 581 439 548 354 q 510 259 489 214 q 468 168 453 145 q 418 90 408 74 q 384 36 384 26 q 384 20 390 9 q 381 -5 367 -14 q 343 -33 315 -38 q 307 -40 300 -40 q 292 -40 288 -40 q 273 -40 264 -36 q 246 -28 246 -9 q 246 1 251 10 q 256 19 265 22 l 250 71 l 228 141 q 188 273 168 351 q 147 429 140 470 q 118 598 118 645 q 118 678 126 694 q 134 709 158 728 q 171 738 182 741 q 192 744 197 744 q 211 744 221 737 q 231 730 231 719 l 241 557 q 241 506 285 322 q 311 211 327 166 l 332 152 z"},"7":{"x_min":0,"x_max":583,"ha":583,"o":"m 130 716 q 208 704 268 690 q 328 676 374 661 q 420 646 452 631 q 509 604 533 578 q 557 552 557 510 q 557 492 552 466 q 548 441 539 411 q 530 381 520 355 q 509 329 486 277 l 456 217 l 450 204 l 389 94 l 373 63 l 337 0 q 313 -43 283 -43 q 278 -43 264 -39 q 283 32 296 66 q 338 169 396 310 q 430 390 442 434 q 454 479 454 531 q 440 545 425 552 q 410 558 373 566 l 299 581 l 258 589 l 223 596 l 164 609 l 145 637 q 131 658 126 670 q 120 681 120 691 q 120 701 130 716 z"},"S":{"x_min":0,"x_max":503,"ha":503,"o":"m 312 598 l 324 626 q 299 629 273 616 q 247 604 222 573 q 196 542 196 505 q 196 471 218 434 q 241 396 288 356 q 293 351 310 339 q 367 297 386 283 q 443 242 464 208 q 484 175 484 126 l 482 107 l 491 116 l 514 138 q 519 143 527 134 q 535 125 532 106 q 530 96 521 85 q 508 70 487 53 q 475 44 462 30 q 448 15 424 -13 q 414 -25 383 -42 q 352 -60 330 -70 q 325 -72 310 -78 q 296 -83 279 -88 q 235 -100 202 -107 q 170 -114 151 -114 q 131 -114 118 -108 q 105 -101 88 -84 q 71 -68 71 -52 q 71 -41 79 -35 l 119 -11 l 172 14 l 175 16 l 238 38 l 265 46 l 302 57 l 355 72 l 366 75 l 381 80 q 399 87 399 107 q 399 124 386 138 l 353 170 l 263 228 q 239 243 215 262 q 195 277 168 302 q 101 363 101 451 q 101 519 143 581 q 189 649 274 694 l 313 711 l 402 736 q 421 741 438 744 q 456 748 472 748 q 487 749 498 738 q 508 726 508 708 q 508 681 482 660 q 456 639 387 614 q 354 602 312 598 z"},"Z":{"x_min":0,"x_max":706,"ha":706,"o":"m 116 608 q 119 623 124 637 q 129 651 136 665 q 158 709 160 712 q 175 736 203 736 q 216 736 234 734 q 253 731 275 728 l 360 716 l 376 713 q 410 707 448 699 q 486 691 505 686 q 578 666 612 642 q 646 618 646 582 q 646 535 584 444 q 540 377 446 271 q 372 188 272 94 l 230 56 q 262 46 304 40 q 347 34 403 34 q 490 34 538 47 q 586 60 654 101 q 668 110 680 118 q 691 126 705 138 l 732 138 q 732 93 698 62 q 663 32 558 -10 q 529 -22 506 -29 q 483 -36 448 -43 q 413 -50 385 -54 q 357 -57 330 -57 q 126 -57 102 -42 q 78 -28 78 -3 q 78 14 91 30 q 126 76 169 125 q 217 179 314 283 l 436 413 l 489 474 q 505 495 512 513 q 520 531 520 543 q 520 560 508 564 q 496 568 480 572 q 464 575 455 577 l 399 588 l 387 590 q 331 599 284 604 q 236 608 163 608 z"},"x":{"x_min":0,"x_max":489,"ha":489,"o":"m 306 195 q 350 221 377 259 q 423 327 423 355 q 423 375 402 380 q 413 385 441 388 q 498 388 491 357 q 488 339 479 324 q 457 283 438 259 q 420 235 383 203 q 355 178 317 154 q 321 133 331 115 q 361 56 384 56 q 404 56 445 91 l 458 104 q 463 110 480 128 q 487 135 489 136 q 492 138 499 138 q 506 138 512 132 q 517 125 517 120 q 517 111 506 96 q 494 80 467 53 l 458 45 q 393 -9 347 -9 q 306 -9 264 30 q 244 47 228 74 l 216 101 l 211 97 l 196 87 q 166 66 154 50 q 141 35 128 18 q 115 2 111 -7 q 109 -13 94 -7 q 80 -1 80 14 q 80 23 87 33 l 115 65 l 153 102 l 155 104 q 175 121 205 139 l 201 170 q 195 211 191 223 q 187 235 174 250 l 149 228 q 118 199 99 178 q 80 157 71 143 q 62 129 54 119 q 47 109 35 96 q 30 91 24 91 q 13 91 7 102 q 1 114 1 119 q 1 129 46 174 l 88 221 l 131 269 l 135 273 l 178 313 l 219 346 q 227 352 237 352 q 265 352 282 316 q 290 297 295 274 l 303 221 l 304 217 l 305 207 z"},")":{"x_min":0,"x_max":294,"ha":294,"o":"m 14 -84 l 143 144 q 168 189 184 257 q 204 343 204 449 q 204 525 200 576 q 197 628 187 673 q 185 680 180 703 q 176 726 174 743 q 171 759 183 771 q 195 783 214 783 q 251 783 272 718 q 294 652 294 499 l 291 442 q 284 369 270 306 q 255 244 235 195 q 150 -7 110 -73 q 76 -129 41 -132 q 17 -132 14 -108 z"},"&":{"x_min":0,"x_max":662,"ha":662,"o":"m 214 193 l 199 212 q 159 271 159 350 q 159 382 167 427 q 187 535 262 620 q 322 688 380 718 q 437 748 511 748 q 625 748 625 663 q 625 644 624 634 q 622 625 617 609 q 606 571 578 515 q 540 441 445 337 q 400 290 328 225 l 307 207 l 288 191 q 331 151 384 130 q 401 142 420 155 q 433 164 476 197 l 506 221 l 512 241 l 528 250 l 544 258 l 560 267 l 576 274 l 613 273 l 623 265 q 625 249 625 243 q 625 235 623 221 l 621 207 l 582 177 q 562 161 532 140 q 509 124 479 104 q 500 100 526 98 q 553 97 564 97 l 623 87 l 631 78 l 629 64 q 626 45 614 28 q 604 18 587 16 l 579 16 l 574 16 q 550 16 522 20 q 495 25 457 35 l 420 47 l 410 51 l 398 56 l 378 46 q 295 6 240 -11 q 185 -28 143 -28 q 104 -28 66 -12 q 42 -1 42 16 q 42 28 54 48 q 62 60 78 76 q 95 92 143 133 z m 298 75 l 317 85 l 328 91 l 301 108 q 271 130 247 157 l 216 131 l 185 105 l 105 41 l 113 31 q 131 29 142 29 q 177 29 215 40 q 253 52 298 75 z m 298 274 l 329 309 q 385 371 412 404 q 438 438 460 473 q 492 524 512 567 q 528 602 532 624 l 533 630 l 534 646 q 534 670 524 680 q 514 690 485 690 q 469 690 448 688 q 428 686 390 668 q 353 649 317 617 q 271 575 239 500 q 207 425 207 365 q 207 332 214 305 q 222 278 239 251 l 255 229 l 276 251 z"},"_":{"x_min":0,"x_max":562,"ha":562,"o":"m -7 0 l -7 36 l 569 36 l 569 0 z"},"v":{"x_min":0,"x_max":385,"ha":385,"o":"m 188 366 q 174 325 174 278 q 174 243 182 194 q 191 144 198 124 q 206 104 223 87 q 250 102 267 124 q 284 146 315 204 q 338 246 350 272 q 361 297 365 312 l 382 365 q 383 371 392 374 q 401 378 424 378 l 435 377 q 427 331 414 296 q 401 262 369 203 q 327 129 304 96 q 280 64 236 17 q 203 -18 179 -18 q 145 -18 109 55 q 99 76 85 122 l 78 146 l 70 138 l 61 130 l 45 113 l 29 95 q 10 109 10 122 q 10 137 43 176 q 59 193 64 237 q 73 332 78 342 q 80 345 108 354 q 146 367 171 367 q 182 367 188 366 z"},"O":{"x_min":0,"x_max":660,"ha":660,"o":"m 155 430 q 143 420 126 420 l 113 421 q 101 423 101 438 q 101 441 103 447 q 112 466 128 480 q 154 503 167 526 q 180 550 192 594 l 195 605 l 208 656 q 217 693 224 704 q 231 715 249 720 q 257 723 264 720 q 271 717 271 712 l 271 701 q 269 685 268 680 q 267 677 263 664 l 288 679 q 327 699 355 708 q 383 716 417 716 q 448 716 493 710 q 585 698 633 638 q 681 578 681 469 q 681 411 668 346 q 636 183 544 92 q 451 0 320 0 q 215 0 153 51 q 91 102 91 191 q 91 208 96 240 q 100 272 110 310 q 120 347 138 390 z m 421 75 q 484 108 524 196 q 569 294 569 428 q 569 531 522 588 q 476 645 400 645 q 371 645 339 636 q 273 617 255 592 q 237 568 219 475 l 195 349 l 192 333 q 186 295 186 261 q 186 226 193 193 q 200 160 214 126 q 229 92 261 72 q 293 52 335 52 q 357 52 378 57 q 398 62 421 75 z"},"(":{"x_min":0,"x_max":302,"ha":302,"o":"m 101 207 q 109 278 124 344 q 140 411 158 454 q 243 658 282 723 q 316 780 351 780 q 362 780 370 774 q 378 767 378 756 q 379 751 379 748 q 379 744 379 741 q 379 721 341 656 q 292 575 250 504 q 224 460 208 396 q 188 313 188 200 q 188 123 192 72 q 195 21 205 -25 l 219 -94 q 221 -111 209 -123 q 197 -135 176 -135 q 140 -132 121 -72 q 98 0 98 153 z"},"C":{"x_min":0,"x_max":582,"ha":582,"o":"m 72 226 q 71 239 70 250 q 70 260 70 269 q 70 305 79 349 q 112 516 204 613 q 292 705 416 719 q 430 720 442 722 q 455 723 470 723 q 532 723 558 692 q 585 662 595 583 q 597 567 597 557 q 597 538 594 523 q 591 508 585 486 q 566 428 544 402 q 530 385 510 385 q 491 385 477 402 q 458 425 458 457 q 458 501 497 573 l 508 590 q 513 598 513 609 q 513 613 513 617 q 512 620 511 624 q 507 645 488 658 q 469 670 436 670 q 408 670 369 658 q 330 647 296 608 q 262 569 232 490 l 210 418 q 199 375 194 336 q 189 296 189 262 q 189 151 241 94 q 293 37 385 37 q 444 37 491 61 q 515 74 532 86 q 548 98 557 108 l 586 141 q 607 145 610 117 q 610 101 596 85 q 581 69 559 53 l 516 21 l 511 18 q 479 -1 432 -12 q 386 -23 336 -23 q 243 -23 176 29 q 109 81 82 174 q 78 190 76 200 q 74 211 72 226 z"},"W":{"x_min":0,"x_max":792,"ha":792,"o":"m 326 127 q 382 180 416 257 q 451 334 481 482 l 488 523 q 499 614 512 640 q 526 667 563 667 q 580 667 594 660 q 607 652 606 643 l 582 471 q 580 455 579 445 q 578 435 578 413 q 578 360 590 271 q 598 216 621 161 l 651 216 q 710 330 740 430 q 777 554 777 599 l 784 693 q 784 713 816 719 q 819 720 822 720 q 826 720 827 720 q 854 720 854 674 q 854 622 820 443 q 815 418 811 402 q 807 387 794 342 q 780 297 779 293 q 773 275 755 227 q 702 98 680 59 q 657 20 639 15 q 621 10 608 7 q 595 4 587 4 q 568 4 556 26 q 549 40 538 67 l 515 126 l 513 131 l 497 190 l 485 234 l 484 237 l 480 250 l 476 242 l 473 236 l 469 226 l 456 197 q 448 177 428 140 l 426 136 l 389 73 q 362 27 350 12 q 337 -2 320 -6 q 316 -7 298 -11 q 281 -15 275 -15 q 250 -15 237 37 q 233 55 215 143 q 210 171 208 184 q 206 198 199 252 l 194 289 l 188 335 l 182 378 l 175 429 l 170 432 l 164 436 q 139 455 130 486 q 122 516 122 591 q 122 640 130 670 q 137 699 153 716 q 169 734 194 734 q 230 734 253 702 q 268 681 272 670 q 277 660 277 641 q 277 612 274 581 q 270 550 268 532 q 266 515 266 508 q 266 500 266 496 q 266 466 270 429 q 274 392 287 305 q 293 266 299 233 q 305 200 315 162 l 320 147 z"},"A":{"x_min":0,"x_max":528,"ha":528,"o":"m 136 274 l 128 269 q 115 262 105 262 q 92 262 90 274 q 89 282 89 286 q 89 291 91 299 l 92 310 l 97 339 q 102 365 110 372 q 119 378 150 378 q 152 380 152 382 q 158 397 158 433 q 158 443 159 450 q 164 474 168 497 l 174 531 q 185 592 196 625 q 206 658 225 698 l 215 721 l 248 729 l 266 744 l 303 755 q 324 762 338 762 q 364 762 364 737 q 364 722 352 714 l 367 709 l 392 700 l 408 694 q 455 674 464 664 q 473 654 480 608 l 487 557 l 489 540 l 492 503 l 495 458 q 495 425 497 421 q 499 416 517 414 q 522 408 522 402 q 522 373 497 373 l 497 337 l 496 301 l 495 256 l 494 217 l 493 196 l 491 133 l 488 71 l 487 59 l 484 9 q 474 -10 448 -13 q 448 21 446 48 q 445 76 440 132 l 439 143 l 433 213 l 431 225 l 426 290 l 424 309 l 419 356 l 392 348 l 367 340 l 320 326 l 268 309 l 240 299 l 215 291 l 208 262 l 202 236 l 190 178 l 163 56 l 150 -8 q 147 -29 115 -39 q 107 -42 97 -40 q 82 -35 84 -25 q 86 -11 88 -2 q 89 8 95 28 q 97 37 106 94 q 115 150 125 215 l 127 225 z m 414 404 q 414 430 411 452 q 408 473 401 514 q 389 582 381 598 q 373 613 336 631 l 314 642 l 288 579 l 279 555 l 272 532 l 263 499 l 251 458 l 246 440 l 238 411 l 230 383 l 278 387 q 312 390 340 392 q 368 395 414 404 z"},"f":{"x_min":0,"x_max":376,"ha":376,"o":"m 103 247 l 102 293 q 102 475 141 595 q 174 695 221 724 q 234 732 249 732 q 281 732 289 698 q 292 686 293 670 q 294 653 294 651 q 294 638 293 632 q 280 517 268 468 q 255 418 215 320 l 206 298 l 200 285 l 193 240 l 186 193 l 167 59 l 164 40 l 151 -79 q 149 -100 148 -116 q 146 -133 146 -153 q 146 -179 150 -190 q 155 -201 172 -219 q 186 -196 191 -176 q 196 -157 204 -98 l 207 -75 l 216 -3 l 220 20 q 234 79 245 100 q 256 120 274 120 q 284 120 301 114 l 331 103 q 333 102 336 103 q 343 106 354 119 q 369 135 380 135 q 389 135 396 125 q 403 115 403 108 q 403 97 380 75 l 360 55 q 346 46 339 44 q 332 43 324 43 q 300 43 282 61 q 272 48 270 39 q 268 30 262 -29 l 257 -67 q 250 -110 244 -136 q 238 -163 233 -179 q 217 -238 204 -262 q 190 -285 168 -299 q 151 -309 131 -309 q 109 -309 91 -294 q 73 -280 66 -254 q 59 -228 59 -180 q 59 -147 59 -116 q 59 -85 60 -55 q 60 -27 68 20 q 75 68 81 104 l 89 154 l 91 164 l 68 141 l 30 101 q 20 101 12 113 q 5 125 5 130 q 5 136 15 147 q 25 158 54 185 q 68 198 89 226 l 99 241 z m 216 601 q 203 558 196 519 q 190 480 190 431 l 189 399 l 202 433 q 221 488 229 520 q 237 552 237 572 q 237 601 216 601 z"},"Q":{"x_min":0,"x_max":660,"ha":660,"o":"m 94 302 q 109 296 111 292 q 115 286 115 266 l 115 227 l 117 198 q 125 143 155 112 q 185 82 254 62 q 266 58 282 57 q 298 56 319 56 q 259 85 208 153 q 175 198 158 260 q 142 322 142 394 q 142 516 206 598 q 266 675 377 708 q 407 716 434 719 q 460 722 484 722 q 583 722 636 666 q 688 609 688 500 q 688 463 682 420 q 676 376 662 331 q 631 233 576 164 q 520 94 438 51 l 446 44 l 452 39 l 533 -29 q 559 -49 566 -54 q 585 -68 586 -69 l 633 -99 q 640 -104 635 -114 q 630 -125 621 -133 q 605 -146 589 -146 q 569 -146 533 -119 l 482 -78 l 469 -69 l 427 -36 l 410 -22 l 384 -1 l 376 5 l 366 13 q 353 9 336 5 q 320 1 298 1 q 189 1 132 48 q 75 95 75 188 q 75 200 76 214 q 76 228 82 259 z m 452 649 q 443 649 434 650 q 424 651 419 651 q 365 651 333 622 q 301 593 279 522 q 257 450 257 385 q 257 267 332 162 q 365 116 396 92 q 473 131 520 201 q 566 271 583 378 q 590 419 590 458 q 590 545 554 593 q 517 641 452 649 z"},"w":{"x_min":0,"x_max":540,"ha":540,"o":"m 203 377 q 187 336 180 294 q 172 253 172 201 q 172 168 172 138 q 173 109 183 87 q 207 113 223 138 q 239 162 275 232 q 315 313 338 382 q 347 390 359 392 q 371 394 375 394 q 390 394 388 384 l 382 332 l 378 249 l 377 233 l 376 163 q 376 118 380 102 q 384 87 402 72 q 425 95 437 118 q 449 141 481 224 q 499 272 509 302 q 519 332 522 352 q 525 373 530 395 q 534 417 548 417 q 566 417 566 399 q 566 377 525 242 q 520 226 505 187 q 490 148 473 110 l 454 71 q 429 28 417 12 q 405 -4 389 -16 q 380 -24 364 -24 q 347 -24 332 -12 q 317 -1 308 22 q 300 44 294 70 q 287 95 285 113 l 281 161 q 253 111 206 38 q 158 -34 140 -34 q 132 -34 124 -28 q 115 -21 111 -7 q 107 7 103 39 l 95 101 l 94 107 l 91 137 l 89 161 l 66 134 q 40 105 30 98 q 20 90 11 92 q -6 97 -2 113 q 1 127 8 136 l 35 164 q 49 179 64 206 q 78 234 88 264 l 94 288 l 107 354 q 124 380 182 380 z"},"-":{"x_min":0,"x_max":374,"ha":374,"o":"m 86 224 q 75 240 75 253 q 75 287 160 312 l 179 316 q 207 323 234 323 l 240 323 l 290 321 q 321 321 335 314 q 349 308 354 293 q 359 278 359 268 q 359 244 345 238 l 303 245 q 294 246 282 246 q 270 247 254 247 q 236 247 225 247 q 198 247 168 242 q 159 240 113 230 z"},"E":{"x_min":0,"x_max":575,"ha":575,"o":"m 266 617 l 262 603 l 260 594 l 258 582 l 249 539 l 235 472 l 225 417 l 224 412 l 221 394 l 305 415 q 333 421 358 425 q 382 429 394 430 l 399 431 l 450 434 q 490 434 500 432 q 511 429 513 419 q 522 381 522 365 q 522 343 498 343 q 486 343 453 348 l 394 349 l 355 348 l 330 348 l 268 343 q 253 341 240 340 q 227 339 210 335 l 207 322 l 205 310 l 200 278 l 195 248 l 191 220 l 184 174 l 178 130 l 175 113 l 174 102 l 172 87 l 202 83 q 252 76 288 74 q 325 71 361 71 q 421 71 450 77 q 478 83 502 96 q 531 113 544 122 q 557 132 565 141 q 575 151 588 133 q 592 125 592 121 q 592 109 576 93 q 560 77 520 51 q 495 35 437 17 q 407 8 377 2 q 347 -3 307 -3 l 302 -4 l 222 -3 q 204 -3 197 -3 q 159 -3 148 2 q 136 6 116 30 q 107 42 107 82 q 107 98 107 118 q 107 138 108 162 l 118 300 q 122 340 124 359 q 127 378 135 435 l 155 555 q 169 635 186 658 q 204 681 273 703 l 295 709 l 298 710 l 323 713 l 354 718 l 362 719 q 374 720 382 720 q 391 721 397 721 q 406 721 410 721 l 416 721 l 465 718 q 514 718 527 706 q 540 694 540 650 q 540 628 534 616 q 528 603 524 604 l 470 619 q 458 623 431 626 q 404 629 384 629 q 344 629 318 627 q 293 625 266 617 z"},"s":{"x_min":0,"x_max":291,"ha":291,"o":"m 182 376 l 196 376 q 240 376 252 350 q 265 324 265 234 q 265 183 234 94 l 229 80 l 227 75 q 251 93 257 101 l 293 137 q 304 141 321 134 q 321 109 307 92 q 299 82 278 63 l 241 28 q 238 26 220 14 q 210 8 209 7 q 208 5 207 3 q 200 -9 196 -17 q 186 -37 157 -37 q 145 -37 133 -31 q 108 -18 98 10 q 89 38 89 49 q 89 60 98 63 q 106 66 127 66 q 136 66 157 77 l 162 97 q 177 156 177 191 q 177 214 171 235 l 145 215 q 113 189 88 165 q 68 146 60 135 q 45 114 26 95 q 16 83 3 103 q -3 115 -3 119 q -3 128 6 140 q 16 151 44 178 q 53 187 62 196 q 70 206 89 230 l 109 255 l 132 284 q 153 312 164 332 q 174 351 182 376 z"},"l":{"x_min":0,"x_max":433,"ha":433,"o":"m -4 94 q -4 116 4 127 q 11 138 43 168 l 63 187 q 88 214 106 237 l 111 300 l 115 339 l 121 419 l 122 445 l 126 477 q 141 579 162 630 q 182 681 219 711 q 246 734 263 742 q 271 745 277 745 q 311 745 323 693 q 327 677 327 656 q 327 630 314 556 q 306 511 284 454 q 261 397 222 325 l 212 308 l 203 292 q 203 273 204 254 q 205 235 208 217 q 230 55 303 55 q 330 55 368 75 q 382 81 392 91 l 438 131 q 444 137 457 126 q 465 118 465 110 q 465 91 423 59 l 369 17 q 361 11 354 8 q 348 4 337 0 q 283 -20 243 -20 q 184 -20 150 18 q 116 56 108 128 l 107 154 l 107 166 l 108 178 l 99 169 l 87 157 l 59 126 q 42 105 32 98 q 23 90 13 90 q 10 90 -4 94 z m 263 527 l 275 569 q 280 586 280 601 q 282 617 263 619 q 253 619 243 609 q 233 599 227 575 l 207 495 q 200 461 194 424 q 189 388 185 357 q 207 388 224 422 q 240 457 256 507 z"},"8":{"x_min":0,"x_max":580,"ha":580,"o":"m 260 638 q 270 631 272 621 l 248 575 q 236 554 236 526 q 236 495 252 462 q 267 429 301 394 l 328 369 l 343 381 l 354 391 l 411 449 l 431 472 q 487 539 506 572 q 525 605 525 635 q 525 647 524 654 q 499 680 468 691 q 438 702 369 702 q 339 702 324 702 q 310 702 299 700 l 239 688 q 234 686 228 690 q 221 695 211 710 q 230 726 257 742 q 284 757 312 766 q 339 776 366 780 q 394 783 431 783 q 505 783 552 734 q 598 686 598 618 q 598 585 583 546 q 568 507 536 465 q 501 419 437 355 l 405 325 l 417 317 l 435 303 l 464 276 q 523 217 523 152 q 523 66 422 15 q 401 4 378 0 q 355 -5 328 -5 q 294 -5 266 7 q 239 19 216 42 q 171 87 171 134 q 171 167 192 202 q 212 237 256 277 l 281 300 l 289 307 l 270 319 q 213 353 184 397 q 154 441 154 488 q 154 563 228 619 q 241 629 260 638 z m 257 149 q 250 136 250 120 q 250 98 262 80 q 275 61 300 51 q 315 44 334 44 q 351 44 372 52 q 438 77 438 136 q 438 175 405 219 q 396 230 388 238 q 381 247 367 258 l 354 268 q 338 256 325 242 q 312 227 286 193 q 281 187 272 174 q 264 161 257 149 z"},"e":{"x_min":0,"x_max":380,"ha":380,"o":"m 149 133 q 147 121 148 114 q 148 81 171 60 q 194 39 230 39 q 256 39 278 50 q 314 67 335 91 q 350 106 366 122 q 383 138 392 138 q 398 138 409 134 q 404 99 382 74 q 361 48 297 6 q 270 -11 242 -18 q 214 -25 189 -25 q 137 -25 103 2 q 69 29 61 74 q 59 88 59 95 q 59 109 60 117 q 62 125 69 142 l 49 121 l 22 92 q 7 87 0 101 q -3 107 -3 113 q -3 122 10 138 q 23 154 54 183 l 103 230 l 115 240 q 146 268 171 287 q 188 300 213 318 q 259 348 291 360 q 323 371 344 371 q 367 369 379 356 q 391 343 391 324 q 391 317 389 309 q 387 301 382 288 q 376 276 365 258 q 343 222 294 191 q 245 160 173 140 l 153 134 z m 332 297 q 318 305 306 305 q 292 305 278 296 q 263 287 236 262 l 193 224 q 176 204 162 176 q 207 186 245 207 q 283 228 302 248 q 322 269 332 297 z"},"b":{"x_min":0,"x_max":539,"ha":539,"o":"m 106 239 q 106 277 106 315 q 106 353 107 392 q 107 513 143 602 q 172 674 218 710 q 233 723 242 728 q 251 734 262 738 q 274 743 279 743 q 312 743 323 696 q 327 680 327 658 q 327 628 313 550 q 306 513 290 469 q 274 425 243 364 l 222 325 l 203 292 q 198 280 196 259 q 193 238 193 177 q 193 149 194 138 q 204 63 241 63 q 254 63 271 70 q 288 77 304 97 q 319 117 334 156 l 344 192 q 337 197 330 207 q 316 225 316 250 q 316 287 346 304 q 364 316 382 316 q 397 316 409 308 q 421 300 427 286 q 430 279 431 269 q 432 259 432 249 q 429 224 417 209 q 417 203 418 196 q 419 189 421 180 q 444 108 478 108 q 500 108 545 136 q 555 141 568 131 q 576 125 576 116 q 576 98 542 78 q 508 58 478 58 q 425 58 392 120 q 385 131 382 144 l 379 131 q 362 53 322 12 q 299 -11 274 -22 q 250 -34 225 -34 q 162 -34 135 27 q 114 73 106 137 l 103 173 l 100 170 l 90 161 q 68 140 60 129 l 32 94 q 25 87 19 95 l 10 110 q 5 123 5 127 q 5 134 15 144 q 25 155 59 185 l 89 218 l 100 233 z m 241 502 l 245 515 l 262 569 q 267 584 267 597 q 267 611 257 615 q 246 619 242 610 q 239 600 236 590 q 232 581 230 570 l 214 508 l 210 490 l 193 407 l 189 384 l 185 356 l 217 434 z"},"%":{"x_min":0,"x_max":997,"ha":997,"o":"m 305 -61 q 301 -58 301 -51 q 301 -37 322 8 q 344 54 405 165 l 443 230 l 456 253 l 535 383 q 590 473 608 508 q 625 542 661 633 l 674 671 q 675 673 677 676 q 682 682 707 704 q 732 726 756 721 q 776 716 776 694 q 776 688 773 680 q 744 609 713 553 q 699 528 646 436 l 612 379 l 513 221 q 465 145 450 120 q 426 80 387 -13 l 378 -39 q 373 -53 363 -60 q 348 -72 333 -72 q 319 -72 305 -61 z m 578 80 q 575 92 575 94 q 574 100 574 112 q 574 143 587 189 q 593 209 602 226 q 615 247 624 262 q 664 325 704 354 q 744 384 812 400 l 827 403 l 862 410 q 877 413 892 413 q 938 413 966 382 q 995 350 995 292 q 995 279 994 272 q 981 132 887 55 q 814 -6 730 -6 q 720 -6 711 -6 q 702 -4 699 -4 q 641 5 614 24 q 588 42 578 80 z m 115 399 q 112 411 112 429 q 112 455 114 466 q 116 478 124 508 q 129 525 136 538 q 142 550 161 581 q 202 645 242 674 q 281 703 349 719 l 365 722 l 399 729 q 414 732 429 732 q 476 732 504 701 q 532 670 532 612 q 532 599 531 592 q 524 518 498 466 q 473 414 424 374 q 351 313 270 313 q 253 313 236 316 q 178 324 152 342 q 125 361 115 399 z m 930 229 q 930 248 925 268 q 908 334 848 334 q 821 334 789 316 q 738 287 720 245 q 696 191 696 149 q 696 129 700 116 q 718 50 765 50 q 796 50 844 77 q 930 125 930 229 z m 467 548 q 467 566 462 588 q 454 620 434 636 q 414 653 385 653 q 358 653 326 635 q 277 607 257 564 q 233 510 233 468 q 233 448 237 435 q 255 369 302 369 q 333 369 381 396 q 467 445 467 548 z"},"m":{"x_min":0,"x_max":911,"ha":911,"o":"m -4 94 q -4 107 -2 115 q 1 123 8 135 l 50 177 l 97 229 l 123 260 l 187 334 q 206 357 216 366 q 227 375 237 379 q 263 390 282 390 q 306 390 308 376 q 311 361 311 352 q 311 344 311 336 q 311 327 311 323 q 311 316 309 302 l 301 230 l 300 225 l 298 211 l 293 192 l 307 211 l 327 238 l 346 264 l 364 286 q 376 301 385 312 q 394 323 404 333 l 410 339 l 447 375 q 467 395 484 404 q 501 413 512 413 q 530 413 534 394 q 534 379 534 371 q 534 361 533 357 l 520 280 q 511 237 490 168 l 480 140 q 510 179 541 209 q 551 219 558 224 q 564 230 583 246 q 638 285 670 285 q 728 285 762 167 l 769 139 l 776 102 l 781 77 l 787 55 q 791 46 802 46 q 815 46 836 61 q 850 72 864 83 q 877 94 885 103 q 905 124 914 132 q 923 139 932 139 q 938 139 949 136 q 945 107 928 85 q 912 63 870 31 q 817 -9 781 -9 q 739 -9 708 49 l 701 64 l 685 97 q 656 157 611 157 q 583 157 552 128 q 538 115 523 95 q 502 68 479 29 l 468 9 l 444 -36 l 442 -39 q 431 -54 410 -54 q 398 -54 391 -47 q 384 -40 385 -31 l 395 30 q 396 36 396 41 q 400 79 403 107 q 406 135 406 146 q 407 158 407 173 q 407 189 404 206 q 401 224 396 244 l 353 196 l 338 178 l 310 144 q 296 127 277 102 q 258 77 232 37 l 209 1 l 197 -17 l 173 -18 q 133 -18 133 8 q 133 21 146 55 l 151 68 q 166 113 172 140 q 179 168 179 189 q 179 214 170 241 l 155 225 l 144 214 l 97 166 l 84 153 q 71 140 52 120 q 32 101 27 94 q 25 91 18 91 q 13 91 -4 94 z"},",":{"x_min":0,"x_max":257,"ha":257,"o":"m 0 -151 q 12 -126 26 -106 q 41 -85 74 -49 q 77 -46 80 -38 q 87 -23 91 -10 q 60 6 60 35 q 60 62 85 88 q 96 100 110 108 q 125 117 135 120 q 145 122 154 122 q 177 122 192 107 q 207 92 207 68 q 207 52 201 38 q 195 25 174 -7 q 153 -39 108 -82 q 64 -126 0 -151 z"},"n":{"x_min":0,"x_max":720,"ha":720,"o":"m -4 92 q -4 122 12 140 q 16 144 55 182 l 62 189 l 118 246 l 186 312 l 252 370 q 282 397 307 408 q 315 412 324 412 q 349 412 350 398 q 352 385 352 374 q 352 360 350 347 q 344 315 340 293 q 336 271 330 248 q 329 246 315 198 l 305 167 l 296 140 l 307 153 l 334 185 l 336 188 l 354 207 q 365 218 377 228 q 389 239 399 246 q 450 285 485 285 q 544 285 576 163 l 583 134 l 595 73 q 600 40 617 45 q 630 49 638 54 q 646 60 672 80 l 686 93 q 714 122 724 130 q 733 139 740 139 q 742 139 756 135 q 756 105 740 82 q 723 60 672 24 q 622 -12 594 -12 q 558 -12 535 47 l 514 95 q 486 156 438 156 q 405 156 372 126 q 359 114 342 93 q 320 65 295 25 l 283 6 l 260 -35 l 258 -39 q 240 -64 207 -61 q 187 -61 177 -48 q 167 -35 170 -16 q 181 34 188 62 q 191 72 202 107 q 204 112 208 129 q 211 146 215 178 l 219 207 l 221 229 l 222 245 l 223 258 l 197 240 q 140 203 110 176 q 95 163 77 145 q 59 127 55 123 q 25 88 12 88 q 10 88 -4 92 z"},"h":{"x_min":0,"x_max":550,"ha":550,"o":"m 65 195 l 72 244 q 83 316 96 376 q 108 436 118 472 q 142 555 162 595 q 181 635 207 664 q 237 696 264 713 q 291 730 325 738 q 337 740 343 740 q 389 740 394 700 q 395 694 395 681 q 395 663 390 640 q 385 618 372 573 q 358 528 322 464 q 282 393 229 324 q 204 291 202 289 q 194 279 178 262 l 169 252 l 157 239 l 145 181 l 143 162 l 137 119 q 131 81 130 62 q 129 42 129 12 q 138 35 145 50 q 147 54 164 87 q 186 130 204 161 q 222 192 233 208 q 264 254 280 270 q 296 287 314 292 q 332 298 344 298 q 378 298 378 240 q 378 222 385 183 l 389 156 l 402 101 q 420 49 443 49 q 463 49 508 86 l 522 100 q 557 139 568 139 q 570 139 584 135 q 584 100 560 72 q 537 45 475 7 q 439 -14 409 -14 q 373 -14 345 20 q 317 53 294 125 l 279 173 l 276 183 q 245 149 212 94 q 199 71 186 47 q 177 29 171 16 q 145 -50 113 -50 q 98 -50 80 -40 q 63 -31 58 -14 q 52 3 52 38 l 53 86 l 54 95 l 55 126 q 46 119 40 111 l 24 93 q 19 85 13 88 q -8 93 -3 116 q 2 130 10 139 l 23 152 l 46 174 l 50 179 z m 298 494 l 338 582 q 359 628 359 650 q 359 662 352 670 q 346 678 337 678 q 329 678 323 672 q 302 651 287 624 q 240 535 231 516 q 222 497 196 423 q 167 341 167 307 q 205 343 236 386 q 267 428 292 481 z"},"z":{"x_min":0,"x_max":415,"ha":415,"o":"m 256 -37 l 267 -24 l 276 -13 l 287 -1 l 305 19 l 332 48 l 351 68 q 382 101 397 116 q 418 138 427 138 q 436 136 444 135 q 444 112 437 98 q 430 85 404 61 l 368 27 l 349 10 l 330 -8 q 308 -27 296 -40 q 285 -52 271 -70 l 276 -77 l 280 -84 l 289 -100 q 305 -135 305 -173 q 305 -262 224 -309 q 196 -325 172 -332 q 149 -338 126 -338 q 102 -338 87 -321 q 72 -304 72 -280 q 72 -268 76 -257 q 88 -220 125 -167 q 132 -157 139 -148 q 153 -130 175 -106 l 184 -97 l 190 -91 l 182 -76 q 166 -41 166 -19 q 166 15 221 114 q 230 131 233 148 q 236 165 236 177 q 236 199 227 215 q 210 241 185 241 q 173 241 167 235 l 117 189 l 63 136 q 37 106 25 96 q 13 87 5 88 q -15 92 -11 111 q -8 123 1 132 l 36 168 l 51 182 q 76 206 94 232 q 113 259 129 294 l 150 333 q 175 376 213 376 q 240 376 266 352 q 329 293 329 222 q 329 171 296 114 l 290 103 l 261 58 q 240 25 240 3 q 240 -16 256 -37 z m 172 -155 l 162 -167 q 121 -219 120 -221 q 102 -246 102 -263 q 102 -284 114 -296 q 127 -309 147 -306 q 175 -303 194 -288 q 213 -273 222 -254 q 230 -236 230 -205 q 230 -195 230 -190 q 229 -183 229 -180 q 224 -148 204 -122 l 202 -125 z"},"B":{"x_min":0,"x_max":573,"ha":573,"o":"m 86 34 l 97 45 q 115 58 136 58 q 145 107 148 130 q 150 152 150 211 l 151 236 l 153 268 l 155 295 l 158 325 l 147 329 q 129 340 129 354 q 129 362 135 367 l 147 373 l 163 383 l 163 421 l 163 453 l 165 528 q 165 546 165 561 q 165 576 166 588 q 168 590 170 592 q 182 603 196 614 l 209 625 l 186 628 l 171 629 l 159 631 l 135 633 l 112 636 q 105 638 100 646 q 96 653 98 663 q 103 688 128 700 q 152 711 226 719 l 355 733 q 364 734 380 734 q 396 734 404 734 q 453 734 481 728 q 509 722 536 710 q 606 679 606 608 q 606 582 596 558 q 585 534 562 511 q 521 469 456 436 q 392 404 288 376 l 270 371 l 253 367 l 270 364 l 287 361 q 356 348 409 328 q 462 308 490 290 q 519 272 540 247 q 568 214 568 179 q 568 121 504 86 q 490 78 469 70 q 448 62 413 52 q 347 33 247 24 l 211 22 l 205 6 q 198 -4 189 -9 q 180 -14 171 -14 q 141 -14 136 17 q 128 14 121 14 q 98 14 86 34 z m 489 509 q 505 529 505 552 q 505 600 447 617 q 420 625 392 629 q 363 633 326 633 l 292 632 q 278 594 272 562 q 265 529 260 471 l 257 428 l 256 414 q 281 414 306 420 q 331 426 364 437 q 413 453 447 474 q 476 491 489 509 z m 385 112 q 419 126 436 136 q 454 146 470 160 q 491 178 491 203 q 491 241 445 268 q 420 282 386 292 q 351 303 278 316 l 245 322 l 242 301 l 241 295 l 237 264 l 232 233 l 227 196 l 222 157 l 215 94 l 211 67 l 281 79 q 341 94 385 112 z"},"K":{"x_min":0,"x_max":673,"ha":673,"o":"m 249 386 q 293 415 330 448 q 368 481 415 531 l 445 565 l 450 571 l 499 637 q 523 672 523 690 q 523 708 501 721 q 508 726 516 730 q 523 734 540 741 q 556 748 574 751 q 591 753 602 740 q 614 726 614 699 q 614 678 593 647 q 569 611 516 556 q 474 513 416 466 l 408 460 l 359 423 l 354 419 l 336 405 q 362 310 410 225 l 431 191 q 472 127 498 101 q 525 75 552 75 q 572 75 602 86 q 610 89 619 95 q 632 104 651 121 q 655 123 662 133 l 666 134 q 685 119 685 106 q 685 87 642 54 l 600 22 q 566 1 548 -2 q 531 -6 513 -9 q 495 -12 484 -12 q 436 -12 402 24 q 369 61 316 166 l 297 203 q 273 253 262 280 q 251 307 239 339 l 231 290 l 229 268 l 226 231 l 220 154 l 216 103 l 213 73 q 209 25 207 16 q 201 -15 176 -15 q 159 -15 126 -6 q 104 -1 104 41 q 104 67 111 114 q 118 161 134 241 q 136 249 138 257 q 145 295 145 398 q 145 462 148 490 q 150 519 153 546 q 153 574 152 594 q 152 615 152 627 q 152 655 156 662 q 161 670 183 682 q 199 690 207 692 q 223 697 239 697 q 266 697 268 682 l 268 635 l 266 579 l 265 558 l 258 476 l 253 420 l 253 411 l 251 402 z"},"R":{"x_min":0,"x_max":522,"ha":522,"o":"m 138 316 l 147 401 l 154 469 l 155 477 l 158 500 q 167 562 174 584 q 181 606 197 632 l 180 643 l 176 645 l 143 663 q 138 666 138 675 q 138 683 142 692 q 146 702 156 710 q 167 717 184 722 q 200 728 219 728 q 247 728 286 716 q 324 705 379 679 q 415 662 447 633 q 532 555 532 494 q 532 416 392 344 q 369 333 344 322 q 320 312 297 303 l 271 293 q 305 224 345 167 q 385 110 443 46 q 471 16 484 3 q 505 -18 518 -30 l 534 -44 l 572 -77 q 595 -97 595 -114 q 595 -126 584 -139 q 572 -134 555 -126 q 549 -123 526 -111 q 429 -60 364 6 q 298 72 236 184 l 218 219 l 217 208 l 215 176 q 215 163 215 157 q 215 147 215 142 q 215 124 214 110 q 214 96 214 86 q 216 63 218 46 q 220 29 220 22 q 220 2 206 -4 q 201 -6 181 -11 q 161 -16 148 -16 q 130 -16 124 -4 q 118 8 118 38 l 118 90 l 124 151 l 128 187 l 130 207 q 132 217 133 225 q 134 233 134 257 l 132 259 l 121 269 l 110 285 q 105 294 110 303 q 116 312 129 316 z m 266 587 q 263 576 260 564 q 258 553 256 541 l 251 518 l 244 476 q 236 431 229 386 q 226 362 226 333 q 229 331 231 331 l 252 337 l 291 350 l 309 357 l 344 371 q 378 385 398 398 q 418 410 437 426 q 450 438 456 448 q 461 458 461 472 q 461 495 442 518 q 423 540 384 561 q 345 582 298 596 l 270 604 l 268 595 z"},"T":{"x_min":0,"x_max":440,"ha":440,"o":"m 94 586 q 93 592 93 604 q 93 618 99 635 q 120 696 129 704 q 138 712 189 712 l 248 716 l 257 717 l 359 717 q 470 717 494 709 q 518 701 518 666 q 518 639 504 632 q 490 625 443 625 l 384 625 l 329 621 l 337 614 l 344 608 l 374 582 l 360 515 l 347 451 l 337 400 l 322 324 l 314 283 l 300 205 q 292 161 290 146 q 283 108 282 95 q 275 22 268 2 q 261 -17 243 -22 q 230 -26 221 -21 q 212 -16 212 -5 q 215 49 217 86 q 219 122 219 173 q 225 235 229 267 q 237 322 242 358 l 262 494 l 267 530 l 278 617 l 263 614 l 253 613 l 232 609 l 187 600 z"},"P":{"x_min":0,"x_max":500,"ha":500,"o":"m 190 632 l 173 643 l 169 645 l 136 663 q 131 666 131 675 q 131 683 135 692 q 139 702 148 708 q 173 728 211 728 q 245 728 286 714 q 326 699 383 664 q 461 616 501 540 q 516 513 523 486 q 530 458 530 431 q 530 366 488 316 q 447 267 370 244 q 359 240 334 234 q 308 229 296 226 l 243 216 l 237 215 l 213 207 l 209 179 q 205 132 205 99 q 205 78 206 70 l 213 12 q 205 -5 168 -12 q 154 -15 144 -15 q 122 -15 115 1 q 108 17 108 60 l 109 121 l 110 129 q 110 144 113 162 q 116 179 118 190 q 102 194 102 204 q 102 210 118 236 q 122 243 125 260 q 128 277 128 329 q 128 364 145 464 q 158 540 166 570 q 174 601 190 632 z m 286 269 q 413 311 413 406 q 413 462 361 529 q 341 555 316 572 q 292 588 261 597 l 255 572 l 246 530 l 242 510 l 238 486 l 227 425 q 218 369 215 349 q 207 298 207 255 l 227 256 q 255 260 264 262 q 279 267 286 269 z"},"t":{"x_min":0,"x_max":337,"ha":337,"o":"m 198 470 q 184 470 171 470 q 158 469 145 469 l 125 469 l 79 471 q 26 471 11 478 q -4 485 -4 510 q -4 532 11 538 q 26 543 81 543 l 156 543 l 216 543 l 218 548 l 224 562 q 229 573 234 588 q 239 603 240 608 q 250 651 256 662 q 263 672 281 672 q 305 672 303 655 l 293 609 l 287 563 l 285 547 l 284 543 l 303 541 q 326 537 332 532 q 337 528 340 512 q 343 495 343 491 q 343 462 301 462 q 287 462 279 463 l 270 465 q 246 370 231 255 l 229 238 l 217 146 q 215 125 214 108 q 212 90 212 76 q 212 55 216 35 l 238 45 q 279 68 305 100 q 331 133 340 133 q 346 133 354 120 q 362 108 362 103 q 362 94 331 66 l 303 39 l 292 29 l 276 15 q 244 -12 224 -25 q 203 -38 186 -44 q 169 -50 151 -50 q 101 -50 101 8 q 101 27 102 46 q 104 65 109 105 l 111 122 l 114 139 l 125 186 l 137 240 q 117 208 115 205 q 104 189 95 178 q 46 116 42 112 q 20 86 6 91 q -10 95 -6 109 q -1 130 12 145 q 13 146 53 190 q 59 197 71 215 q 87 240 112 282 q 137 324 151 356 l 154 361 l 165 387 l 180 424 l 186 438 l 191 452 z"},"M":{"x_min":0,"x_max":708,"ha":708,"o":"m 108 -15 q 108 53 113 118 q 122 214 128 278 l 146 462 q 150 502 156 559 q 159 592 162 608 l 166 635 l 172 675 q 182 683 188 688 q 195 692 212 700 q 254 720 264 720 q 273 720 277 710 q 281 700 285 677 q 289 654 293 638 q 301 610 306 590 l 308 583 l 334 496 q 359 413 408 413 q 428 413 445 426 q 457 435 467 443 q 477 451 488 463 q 532 508 548 526 q 563 543 596 587 q 618 617 630 630 q 642 643 654 652 q 679 672 696 680 q 713 689 724 689 q 738 689 745 683 q 752 677 751 668 q 743 590 726 500 q 709 410 676 273 l 647 155 l 644 141 q 632 98 626 72 q 621 47 621 28 q 621 22 617 18 q 608 9 579 -1 q 570 -4 556 -5 q 541 -6 540 -6 l 545 37 l 550 75 l 553 100 l 557 145 l 566 229 l 573 292 l 580 348 l 603 522 l 594 512 l 588 504 l 559 463 q 506 385 480 362 q 412 298 364 298 q 300 298 253 421 l 249 433 l 231 340 l 226 309 l 219 258 l 208 180 l 196 98 q 196 23 186 8 q 175 -7 122 -14 z"},"g":{"x_min":0,"x_max":383,"ha":383,"o":"m -1 92 q -1 120 8 134 q 16 147 56 183 l 86 211 q 99 259 118 295 q 145 349 178 382 q 210 414 247 428 q 284 443 305 443 q 320 443 336 436 q 351 428 351 408 q 351 398 346 390 q 333 369 318 354 l 280 319 l 274 314 l 264 306 l 226 278 l 209 265 q 134 196 134 138 q 134 81 205 10 l 226 -9 l 235 -3 l 243 2 l 279 29 l 306 49 l 318 58 l 345 83 l 372 112 l 394 138 q 402 144 419 142 q 419 112 408 96 q 397 79 348 34 l 338 25 l 333 21 l 295 -7 l 259 -36 l 267 -42 l 274 -48 q 289 -62 306 -83 q 310 -88 320 -100 q 329 -113 339 -132 q 356 -164 356 -197 q 356 -245 319 -284 q 282 -322 214 -337 q 201 -340 181 -341 q 161 -342 158 -342 q 149 -342 144 -342 q 138 -341 135 -341 q 84 -336 54 -308 q 24 -280 24 -241 q 24 -224 30 -207 q 44 -168 87 -121 q 105 -101 112 -94 q 124 -83 147 -65 l 156 -58 l 163 -51 l 135 -39 q 50 9 50 90 q 50 96 50 102 q 52 110 52 114 l 54 124 q 44 107 30 100 q 16 90 -1 92 z m 83 -200 q 78 -208 75 -219 q 72 -230 72 -238 q 72 -274 103 -287 q 122 -295 144 -295 q 158 -295 181 -290 q 274 -267 274 -205 q 274 -171 244 -130 l 224 -105 l 209 -90 l 201 -83 l 180 -98 q 140 -130 120 -152 q 99 -174 83 -200 z"},"j":{"x_min":0,"x_max":451,"ha":451,"o":"m 285 9 q 320 22 354 46 q 388 70 410 95 q 438 127 448 135 q 459 143 468 141 q 486 137 482 119 q 479 108 472 98 q 464 89 439 63 q 436 60 422 48 q 409 37 398 27 l 367 3 q 338 -17 320 -26 q 303 -36 284 -42 l 282 -58 l 280 -76 q 268 -150 255 -190 q 237 -246 223 -274 q 209 -301 190 -316 q 172 -332 147 -332 q 100 -332 80 -288 q 69 -263 69 -232 q 69 -203 78 -172 q 88 -142 110 -107 q 142 -56 195 -23 l 196 -10 l 197 0 l 198 11 l 203 59 l 205 77 l 210 134 q 210 164 211 194 q 212 224 214 259 q 179 236 139 201 q 113 179 109 175 q 91 159 86 153 q 46 109 34 98 q 21 87 12 88 q 4 89 -2 96 q -7 102 -5 111 q -2 123 7 132 l 52 175 l 55 178 l 167 287 l 213 333 l 215 335 q 245 370 257 370 q 259 370 274 365 q 290 360 294 352 q 297 345 297 313 l 297 275 l 297 237 l 295 186 q 295 148 291 99 q 287 50 287 35 l 287 25 z m 200 592 q 200 607 207 623 q 214 639 236 664 q 257 690 288 702 q 296 706 307 706 q 324 706 338 694 q 351 681 352 670 q 354 658 354 649 q 354 629 346 610 q 337 591 319 572 q 296 548 264 540 q 254 538 250 538 q 229 538 214 552 q 200 567 200 592 z m 93 -249 q 93 -280 109 -292 q 114 -296 121 -296 q 130 -296 136 -289 q 141 -282 144 -274 q 148 -266 159 -229 l 162 -216 l 172 -164 l 176 -148 l 180 -122 l 185 -91 l 186 -78 l 188 -67 q 157 -88 136 -118 q 114 -149 101 -194 q 96 -213 94 -224 q 93 -236 93 -249 z"},"i":{"x_min":0,"x_max":484,"ha":484,"o":"m 139 206 l 119 188 l 73 145 q 57 127 42 112 q 28 96 22 93 q 15 90 12 90 q 2 90 -3 96 q -8 103 -8 111 q -8 123 3 134 l 34 164 l 41 171 l 73 203 l 137 269 l 151 284 q 185 319 203 319 q 212 319 237 310 q 262 302 268 292 q 273 281 273 225 q 275 205 277 193 q 279 181 284 160 l 292 133 q 318 49 365 49 q 387 49 412 68 q 431 83 440 91 q 449 99 457 107 q 475 128 483 134 q 491 140 499 138 q 517 134 513 116 q 511 106 504 96 q 496 86 473 61 l 438 31 q 396 -4 358 -19 q 305 -41 276 -41 q 242 -41 218 -10 q 195 20 168 97 q 158 124 152 148 q 145 172 139 206 z m 185 548 q 183 561 188 576 q 194 592 212 615 q 229 638 251 651 q 262 658 276 658 q 309 658 322 622 q 328 607 328 589 q 328 564 315 542 q 297 513 264 502 q 253 499 243 499 q 193 499 185 548 z"},"y":{"x_min":0,"x_max":468,"ha":468,"o":"m 349 22 q 360 30 370 37 q 379 44 392 56 q 421 84 435 101 q 467 137 480 137 q 484 137 488 137 q 491 136 495 135 q 495 103 480 84 q 466 64 405 14 q 373 -11 337 -32 l 334 -47 l 330 -61 l 321 -96 q 289 -213 253 -268 q 221 -316 180 -326 q 177 -327 174 -327 q 170 -327 169 -327 q 135 -327 135 -289 q 135 -271 162 -209 q 172 -187 192 -151 q 217 -107 251 -55 l 258 -43 l 267 -31 l 274 -4 l 282 28 l 300 107 l 303 125 l 307 145 q 279 107 250 78 q 227 56 208 41 q 189 26 163 9 q 143 -3 127 -3 q 91 -3 80 51 l 74 88 l 71 145 l 55 130 l 53 127 q 28 98 22 93 q 15 88 7 91 q -6 94 -6 107 q -6 117 5 136 q 8 140 19 153 q 34 170 51 188 q 72 211 87 248 l 115 325 q 115 328 135 328 q 149 328 158 328 q 181 328 190 324 q 199 321 197 317 l 175 259 q 171 250 168 236 q 164 222 160 197 l 157 171 q 155 158 155 148 q 155 139 155 135 q 155 124 156 118 q 161 86 187 86 q 194 86 200 89 q 213 95 226 106 q 240 118 267 147 q 281 161 300 192 q 319 224 342 274 l 349 295 q 355 317 362 340 q 366 350 373 350 q 375 350 394 348 q 412 346 416 344 q 424 340 424 326 q 424 310 376 118 l 357 49 l 354 37 z"},".":{"x_min":0,"x_max":242,"ha":242,"o":"m 50 30 q 50 40 52 45 q 58 62 86 94 q 106 117 126 132 q 134 138 144 138 q 174 138 188 102 q 191 92 192 87 q 193 82 193 71 q 193 64 192 61 q 192 33 174 12 q 157 -9 129 -18 q 118 -21 108 -21 q 84 -21 67 -7 q 50 7 50 30 z"},"p":{"x_min":0,"x_max":592,"ha":592,"o":"m 103 -246 l 137 -113 q 170 10 191 71 q 234 204 261 261 q 284 309 309 333 q 351 369 400 369 q 422 369 444 364 q 465 358 487 343 q 552 300 552 232 q 552 175 506 107 l 485 80 l 481 78 l 434 38 l 431 35 l 411 18 q 438 18 457 26 q 476 33 513 59 q 550 85 568 104 q 601 138 612 138 q 618 138 627 135 q 624 101 603 76 q 582 52 521 15 q 483 -8 434 -21 q 384 -34 325 -34 q 299 -34 270 -31 l 217 -22 l 215 -34 l 213 -40 l 211 -48 l 199 -89 l 181 -158 l 170 -192 l 157 -235 q 134 -307 124 -323 q 114 -339 88 -339 q 58 -339 48 -318 q 37 -296 37 -230 l 37 -145 l 37 -141 l 45 -49 l 47 -30 l 56 44 l 65 136 l 51 121 l 21 90 q 18 87 13 87 q -1 91 -4 96 q -7 101 -5 111 q -3 121 6 135 q 8 139 22 153 q 52 184 59 191 q 75 208 94 247 q 113 286 127 323 q 132 337 147 377 q 156 402 158 410 q 164 436 171 459 q 178 482 187 506 q 193 523 211 523 q 221 523 232 514 q 244 506 248 498 q 253 491 253 478 q 253 452 201 306 q 186 265 171 200 q 156 134 146 82 q 126 -26 110 -176 z m 429 214 q 424 232 418 244 q 412 255 400 267 q 389 279 373 279 q 349 279 331 252 q 317 230 305 206 q 293 182 283 156 q 265 109 258 81 q 252 53 252 28 q 258 27 269 27 q 290 27 313 38 q 336 48 368 73 q 400 98 416 128 q 433 157 433 186 q 433 202 429 214 z"},"X":{"x_min":0,"x_max":588,"ha":588,"o":"m 309 302 l 303 311 l 295 323 l 277 350 l 258 378 q 242 401 232 417 q 223 433 210 455 l 162 543 q 142 581 134 602 q 125 622 125 638 q 125 658 145 687 q 175 728 201 728 q 227 728 257 682 l 265 665 l 260 657 q 248 630 248 621 q 248 611 271 561 l 298 504 l 303 495 l 312 477 l 336 433 l 362 386 l 366 378 l 372 368 l 390 395 l 403 415 l 420 440 l 442 472 l 455 491 q 494 552 511 584 q 528 617 538 654 l 499 661 q 524 690 556 711 q 567 718 580 725 q 592 732 600 735 q 608 738 615 738 q 660 738 660 674 q 660 641 653 624 q 646 606 611 558 l 550 472 l 487 389 l 466 362 l 438 328 l 426 313 l 418 303 q 434 262 468 207 l 489 173 l 509 142 q 525 118 548 85 q 579 41 611 0 q 595 -14 577 -14 q 545 -14 498 36 l 483 54 l 445 98 l 410 145 l 390 174 l 379 191 l 352 236 l 343 224 l 338 219 l 253 119 q 214 71 201 51 q 174 11 162 -3 q 150 -17 139 -17 q 134 -17 121 -11 q 108 -5 108 11 q 108 15 110 19 q 128 50 169 109 l 188 138 l 207 163 l 234 200 l 252 224 l 277 257 l 286 269 z"},"*":{"x_min":0,"x_max":394,"ha":394,"o":"m 235 575 l 229 586 l 223 595 l 198 642 q 176 683 176 706 q 176 717 178 724 q 181 732 189 746 q 212 741 217 733 q 222 725 239 669 q 242 658 246 647 q 250 636 259 617 l 268 597 l 269 594 l 276 607 l 282 618 l 287 627 l 308 665 q 316 680 322 688 q 329 697 336 702 q 344 707 353 707 q 367 707 378 695 q 385 687 385 675 q 385 656 358 630 l 344 617 l 321 595 l 317 591 l 313 586 l 322 589 l 328 591 l 336 592 q 362 596 366 596 q 375 597 390 597 q 427 597 440 575 q 445 565 445 556 q 445 540 432 528 q 418 517 408 517 q 399 517 384 520 q 369 523 357 526 q 345 528 333 528 q 328 528 324 528 q 315 526 311 526 l 305 525 l 298 523 l 299 519 l 305 502 l 325 456 q 328 450 339 428 q 350 406 350 397 q 350 386 332 372 q 303 417 275 482 l 267 503 l 264 510 l 257 500 l 251 490 q 230 456 206 407 l 192 375 q 172 389 172 404 q 172 421 195 467 l 214 505 l 217 509 l 221 517 l 226 525 l 207 519 l 164 507 l 119 487 q 112 489 110 493 q 107 499 107 504 q 107 535 169 555 l 208 568 l 214 570 l 223 572 z"},"Y":{"x_min":0,"x_max":576,"ha":576,"o":"m 347 341 l 380 398 l 429 482 l 454 522 q 505 605 540 652 q 574 699 613 738 q 654 727 654 684 q 654 652 629 596 q 622 581 612 563 q 601 545 581 515 q 565 491 556 479 q 544 463 513 426 q 472 376 454 350 q 437 323 415 281 q 405 261 396 240 q 387 219 381 200 l 364 145 q 352 95 352 75 q 352 60 356 50 q 361 41 375 23 q 381 15 369 -4 q 355 -14 344 -18 q 318 -26 301 -26 q 271 -26 255 -8 q 239 10 239 40 q 239 66 245 92 q 246 95 256 132 l 266 163 l 269 170 l 289 226 l 294 241 l 306 280 q 282 301 265 324 q 248 348 225 391 l 175 503 q 147 566 134 604 q 122 642 122 663 q 122 679 129 693 q 150 731 187 731 q 199 731 211 725 l 230 712 q 243 698 245 684 q 247 671 247 596 q 247 577 255 548 q 263 519 291 450 q 299 430 309 409 q 319 388 334 362 l 342 348 z"},"c":{"x_min":0,"x_max":420,"ha":420,"o":"m 84 152 l 68 134 l 36 101 q 30 102 28 104 l 19 117 q 14 123 9 130 q 9 137 51 179 q 93 221 140 266 q 227 350 289 387 q 338 416 373 416 q 393 416 405 410 q 417 405 426 394 q 432 386 432 377 q 432 363 420 351 q 401 334 386 324 l 359 307 l 336 293 l 287 264 l 275 257 l 220 226 q 182 203 182 158 q 182 116 218 87 q 244 67 287 67 q 300 67 307 68 q 342 72 354 79 q 367 86 401 120 l 416 131 q 422 135 430 132 q 438 129 441 122 q 444 114 444 108 q 444 97 430 82 q 415 67 378 39 q 356 22 324 10 q 292 -1 258 -1 q 233 -1 203 5 q 149 15 120 38 q 92 60 84 98 q 83 103 82 118 q 81 133 81 134 z"},"!":{"x_min":0,"x_max":287,"ha":287,"o":"m 155 470 q 135 474 135 489 q 135 500 144 532 l 157 576 l 160 585 l 180 639 l 203 686 q 218 719 230 727 q 243 735 282 735 q 339 735 339 713 q 339 710 337 704 q 309 608 263 507 q 258 496 250 464 q 237 411 232 390 q 223 352 218 323 q 213 294 213 283 l 214 197 q 215 190 200 184 q 186 178 171 174 q 156 171 146 171 q 118 171 118 182 q 118 239 120 266 q 123 294 130 343 l 135 372 l 140 401 z m 79 30 q 79 40 81 45 q 87 62 115 94 q 135 117 155 132 q 163 138 173 138 q 203 138 217 102 q 220 92 221 87 q 222 82 222 71 q 222 64 221 61 q 221 33 204 12 q 186 -9 158 -18 q 147 -21 137 -21 q 113 -21 96 -7 q 79 7 79 30 z"},"/":{"x_min":0,"x_max":307,"ha":307,"o":"m 43 -56 q 37 -50 37 -42 q 37 -28 46 -2 q 54 24 80 86 l 121 238 l 165 392 q 209 541 224 594 q 238 648 244 682 q 245 685 246 686 q 250 691 278 716 q 288 726 298 730 q 309 733 318 733 q 340 733 345 716 q 347 708 347 703 q 347 689 336 658 q 325 626 293 553 l 242 388 l 192 229 q 175 177 159 125 q 151 98 148 86 q 139 49 130 16 q 122 -17 116 -33 q 109 -49 98 -58 q 86 -66 71 -66 q 54 -66 43 -56 z"},"6":{"x_min":0,"x_max":581,"ha":581,"o":"m 272 438 q 307 438 334 428 q 360 418 421 378 q 437 368 455 354 q 470 343 485 328 q 581 233 581 154 q 581 109 550 64 q 500 -11 392 -11 q 348 -11 304 0 q 218 20 170 74 q 121 127 104 222 q 97 257 97 297 q 97 442 215 575 q 229 590 245 606 q 261 622 266 626 q 358 699 389 721 q 420 743 433 743 q 435 743 441 741 q 456 733 456 721 q 456 709 442 689 q 428 669 397 638 q 390 631 380 621 q 362 602 323 556 q 288 515 264 479 q 239 443 226 415 q 176 309 176 237 q 176 186 200 152 q 225 117 273 97 q 294 88 320 84 q 345 80 373 80 q 417 80 444 106 q 470 131 470 168 q 470 180 466 195 q 462 210 454 226 q 447 243 430 272 q 404 316 378 344 q 353 373 328 390 q 304 406 298 410 q 284 419 278 421 q 276 423 276 424 q 274 427 272 438 z"},"r":{"x_min":0,"x_max":405,"ha":405,"o":"m 140 285 l 133 291 q 116 310 116 318 q 116 328 144 347 l 180 370 q 194 376 208 376 q 241 376 266 348 q 291 321 298 270 q 300 254 300 245 q 300 224 296 198 q 291 171 281 132 l 277 120 l 258 56 l 256 49 l 250 24 l 279 33 q 339 57 368 92 l 407 133 q 416 142 428 123 q 435 111 435 106 q 435 91 377 38 q 350 14 302 -10 q 268 -27 245 -34 q 222 -42 201 -42 q 159 -42 159 -12 q 159 -3 162 9 l 171 36 l 188 81 l 192 92 l 202 117 q 217 162 217 190 q 217 213 207 226 q 197 240 180 245 l 160 226 l 131 198 q 113 181 95 164 q 86 155 74 141 q 43 104 32 96 q 22 87 12 89 q -6 93 -2 107 q 1 123 8 133 l 57 181 q 68 191 84 211 q 104 235 124 264 z"},"2":{"x_min":0,"x_max":581,"ha":581,"o":"m 137 501 q 118 529 118 566 q 118 622 164 668 q 186 690 217 694 q 248 699 345 699 q 373 699 394 694 q 415 688 442 676 q 497 652 520 626 q 542 600 542 558 q 542 532 535 500 q 528 468 507 428 q 486 388 450 342 q 429 314 402 285 q 389 270 354 235 q 308 188 286 164 q 265 139 240 104 l 250 100 l 259 97 q 295 86 342 80 q 362 77 390 74 q 418 72 439 72 q 448 72 452 72 q 457 72 462 72 q 468 74 470 74 l 562 89 q 569 93 574 85 q 580 77 581 67 q 581 56 572 46 q 564 35 546 29 l 464 4 l 391 -11 q 367 -15 338 -15 q 323 -15 286 -14 q 248 -13 237 -13 l 194 -9 q 161 -4 147 0 q 133 4 124 9 q 100 23 100 47 q 100 63 112 78 q 128 98 150 124 q 173 149 193 169 l 223 199 l 294 272 l 340 319 q 371 352 389 374 q 407 395 415 409 q 447 460 447 501 q 447 575 350 593 q 324 597 305 598 q 286 600 260 600 q 211 600 196 592 q 181 583 162 549 l 141 509 z"},"9":{"x_min":0,"x_max":583,"ha":583,"o":"m 449 430 l 425 416 q 369 383 322 370 q 275 357 229 357 q 177 357 148 383 q 118 409 118 444 q 118 456 123 471 q 132 495 147 515 q 162 535 203 575 q 221 593 238 606 q 259 622 288 640 q 417 721 482 721 q 514 721 535 701 q 556 681 550 660 l 414 617 q 386 608 353 586 q 320 565 279 526 q 248 496 234 476 q 221 456 221 441 q 221 426 230 415 q 239 404 253 404 q 265 404 276 408 q 288 411 321 425 q 342 434 371 454 q 405 477 446 513 l 468 534 l 521 592 q 527 601 541 601 q 544 601 556 598 q 567 596 574 586 q 580 575 580 553 q 580 540 577 520 q 574 499 567 470 l 543 358 q 537 334 526 301 q 516 268 507 243 l 504 236 l 460 125 q 428 45 404 13 q 380 -19 356 -19 q 346 -19 334 -14 q 323 -9 327 0 l 390 116 q 402 138 412 174 q 426 222 438 291 q 444 324 447 356 q 450 387 450 405 l 450 416 z"}," ":{"x_min":0,"x_max":290,"ha":290,"o":""},"I":{"x_min":0,"x_max":272,"ha":272,"o":"m 150 457 q 131 461 131 476 q 131 487 140 519 l 152 563 l 155 572 l 175 626 l 198 673 q 213 706 225 714 q 237 722 275 722 q 310 722 322 718 q 333 713 330 702 q 316 648 297 598 q 294 590 288 563 q 275 503 263 448 l 249 380 q 234 304 224 240 q 215 176 215 133 q 215 62 216 44 q 218 25 220 11 q 222 5 212 0 q 202 -6 178 -11 q 153 -16 148 -16 q 128 -16 122 2 q 116 20 116 69 l 115 151 l 115 164 q 115 202 118 235 q 120 268 127 322 q 131 355 137 390 q 143 425 150 457 z"},"H":{"x_min":0,"x_max":630,"ha":630,"o":"m 138 343 l 144 398 l 153 470 l 161 520 q 175 604 189 689 q 195 711 224 719 q 238 724 251 722 q 273 722 287 710 q 301 697 298 683 q 297 674 294 662 q 292 651 285 622 l 270 538 l 263 506 l 254 458 l 247 426 l 242 399 l 241 395 l 237 376 l 304 388 q 417 404 469 404 q 489 404 499 403 q 509 402 533 399 l 536 411 l 537 418 l 541 469 l 546 541 l 550 608 l 551 625 q 553 651 554 676 q 556 701 556 710 q 556 721 567 730 q 578 740 601 742 q 621 745 634 737 q 648 729 648 718 q 648 615 630 478 q 625 442 608 326 l 596 250 l 591 224 l 569 105 l 545 -21 q 536 -40 514 -40 q 502 -41 494 -34 q 485 -27 487 -17 q 490 2 493 22 q 496 41 501 63 l 511 159 q 524 277 524 312 l 525 320 l 526 337 q 479 337 444 332 q 409 327 341 306 l 308 296 l 279 287 l 263 283 l 224 272 l 222 263 l 220 256 l 217 236 l 214 216 l 211 193 l 207 159 l 201 93 l 200 30 q 200 5 190 -10 q 181 -24 161 -24 q 153 -24 145 -19 q 132 -11 128 6 q 123 22 123 67 l 122 112 l 122 117 l 123 134 l 124 159 l 126 184 l 128 200 l 128 250 l 120 255 q 94 273 94 293 q 94 312 115 329 q 129 340 138 343 z"},"4":{"x_min":0,"x_max":581,"ha":581,"o":"m 214 624 l 213 631 q 210 645 210 655 q 210 674 223 685 q 260 719 286 731 q 312 743 327 739 q 339 736 344 726 q 349 717 345 707 l 297 613 q 291 602 278 567 q 256 509 253 500 q 241 467 225 420 q 214 388 211 374 q 203 343 198 324 q 194 306 194 298 q 194 282 206 278 q 219 274 255 274 l 329 269 q 343 269 371 270 q 399 271 414 271 l 414 283 l 415 286 l 418 352 l 420 389 l 421 403 q 433 495 438 516 q 442 537 453 537 q 467 534 479 534 q 504 534 508 533 q 517 530 517 520 q 517 513 515 505 q 507 480 502 462 l 489 395 l 483 355 l 481 335 l 476 305 l 475 293 l 474 287 l 474 277 l 512 287 l 547 304 q 551 307 556 302 q 560 296 562 285 q 565 265 552 254 q 540 242 497 227 l 464 215 l 461 199 l 453 148 l 444 82 l 445 20 q 446 12 434 4 q 421 -4 402 -10 l 389 -13 q 386 17 386 46 q 386 88 390 116 q 394 145 396 160 l 399 181 l 402 198 l 378 193 q 306 179 256 179 q 190 179 140 200 q 134 224 134 246 q 134 269 143 319 l 157 396 l 163 426 q 176 491 186 531 q 197 571 214 624 z"},"D":{"x_min":0,"x_max":564,"ha":564,"o":"m 422 96 q 427 86 427 80 q 427 71 416 64 q 406 58 380 48 l 322 25 l 287 14 q 229 -2 190 -2 q 165 -2 144 2 q 144 15 152 22 q 159 28 182 34 q 294 62 388 139 q 434 176 458 228 q 483 280 483 336 q 483 410 444 475 q 405 540 330 581 q 299 599 263 608 l 259 588 l 256 572 l 241 479 l 235 447 l 218 352 l 206 287 l 192 215 q 179 142 172 116 q 166 89 161 83 q 151 71 142 68 q 135 66 130 71 q 124 76 124 85 q 124 130 134 183 l 140 301 l 149 415 q 162 549 164 573 q 166 597 169 599 l 196 615 l 199 617 l 209 624 l 169 642 q 117 666 117 677 q 117 684 127 702 q 133 713 154 713 q 172 713 194 708 q 217 703 262 688 l 395 645 q 404 640 410 637 q 413 635 435 620 q 581 510 581 366 q 581 298 546 232 q 510 167 438 109 z"},"0":{"x_min":0,"x_max":580,"ha":580,"o":"m 228 664 q 272 695 323 706 q 374 717 407 717 q 506 717 561 650 q 616 582 616 453 q 616 414 614 396 q 613 379 608 347 q 590 224 530 138 q 471 52 390 20 q 334 -1 284 -1 q 213 -1 162 36 q 110 73 92 135 q 80 179 80 232 q 80 277 89 355 q 94 400 105 438 l 109 454 l 157 618 q 176 681 186 698 q 195 715 214 721 l 229 721 q 232 719 235 716 q 235 714 236 713 l 232 696 q 229 686 229 685 q 228 679 228 664 z m 176 280 q 176 229 181 204 q 186 180 200 149 q 233 70 314 70 q 346 70 381 88 q 439 119 474 204 q 513 298 513 436 q 513 538 472 592 q 431 645 363 645 q 334 645 302 636 q 271 626 252 616 q 232 605 215 587 q 191 503 180 409 q 178 393 177 363 q 176 333 176 322 q 176 303 176 294 q 176 284 176 280 z"},"F":{"x_min":0,"x_max":499,"ha":499,"o":"m 72 351 l 81 371 q 89 384 102 393 q 115 402 132 405 l 134 422 l 136 447 l 138 477 l 140 496 l 142 516 l 146 548 l 152 600 q 161 666 190 692 q 223 721 321 741 q 339 746 356 746 l 423 742 q 491 742 510 728 q 528 715 528 667 q 528 641 522 628 q 516 616 510 617 l 447 638 q 436 642 416 646 q 397 649 371 649 l 355 650 l 347 649 l 313 646 l 264 642 l 261 627 l 259 618 l 250 563 l 239 499 l 234 470 l 230 444 l 228 434 l 226 420 q 286 444 363 456 l 396 460 l 466 464 q 517 464 535 454 q 553 443 553 409 q 553 390 543 376 q 533 363 524 364 l 470 370 q 466 371 456 372 q 445 372 404 372 q 361 372 326 372 q 292 371 244 365 l 218 361 l 216 345 l 215 334 l 208 274 l 197 180 l 190 107 l 188 94 l 184 27 q 184 7 174 -9 q 164 -25 147 -25 q 139 -25 130 -19 q 120 -13 116 3 q 112 19 112 66 l 112 127 l 112 142 l 117 219 l 118 242 l 122 290 l 123 306 l 126 347 q 114 345 107 345 q 101 345 87 347 z"},"`":{"x_min":0,"x_max":248,"ha":248,"o":"m 79 517 l 85 540 l 104 558 l 156 543 q 169 538 177 529 l 181 525 l 183 521 l 214 506 l 244 493 l 277 479 l 309 465 l 320 441 l 306 425 l 270 436 l 234 448 l 201 458 l 167 467 l 123 485 l 88 508 z"},"k":{"x_min":0,"x_max":526,"ha":526,"o":"m 139 22 q 157 40 164 53 l 189 105 q 198 125 204 138 q 210 151 211 158 l 211 193 l 213 222 q 217 241 229 252 q 241 263 257 263 q 266 263 276 258 l 292 282 q 310 309 323 333 q 336 357 341 370 l 362 429 q 372 439 383 439 q 397 439 406 429 q 415 419 415 397 q 415 379 409 359 q 403 339 386 310 l 352 251 l 351 248 l 344 239 l 335 227 q 361 204 379 180 q 397 157 427 108 q 435 95 446 84 q 454 78 463 78 q 484 78 499 103 q 510 120 524 134 q 529 139 536 139 q 540 139 546 135 q 557 125 556 109 q 556 99 548 90 q 541 80 515 57 l 470 18 l 466 15 l 442 1 q 418 -7 402 -7 q 361 -7 314 64 q 306 75 296 86 q 283 100 263 117 l 245 89 l 240 81 l 201 22 q 166 -30 130 -49 q 119 -55 107 -55 q 73 -55 68 -28 q 64 0 64 15 q 64 28 67 50 q 70 71 76 106 l 79 124 l 82 138 l 86 154 l 64 133 l 59 127 q 43 108 37 103 q 25 92 16 94 q 9 95 5 101 q 1 107 2 113 q 7 132 20 146 q 23 149 59 186 l 76 206 q 102 241 111 271 q 120 301 129 377 l 132 400 l 142 465 l 149 517 l 155 553 l 171 642 l 189 732 q 200 739 210 739 q 233 739 251 716 q 259 705 264 688 q 268 670 268 643 q 268 614 260 558 l 253 522 q 243 474 233 445 l 231 439 l 213 388 l 208 373 l 204 362 q 188 312 164 218 l 155 182 l 153 174 l 138 98 q 131 62 131 48 q 131 36 139 22 z"},"u":{"x_min":0,"x_max":466,"ha":466,"o":"m 199 346 q 192 331 186 314 q 179 297 175 283 q 166 253 162 232 q 157 212 157 191 q 157 175 156 157 q 155 139 155 136 q 156 128 156 125 q 162 85 188 85 q 195 85 202 89 q 216 97 229 110 q 242 124 270 161 q 278 173 284 184 q 291 195 299 213 l 311 248 l 322 249 q 349 249 360 247 q 371 245 371 220 q 371 206 371 193 q 368 177 367 169 l 367 146 q 370 115 373 102 q 376 90 385 76 q 387 73 396 71 l 415 86 l 430 96 l 452 115 l 464 125 q 469 129 476 126 q 482 123 485 116 q 488 108 488 103 q 488 98 485 93 l 466 73 l 462 69 l 449 55 l 436 43 q 393 14 365 14 q 322 14 295 80 l 286 101 q 267 75 244 56 q 222 37 188 17 q 154 -3 131 -3 q 91 -3 79 49 l 73 88 l 70 145 l 52 125 q 32 103 24 96 q 15 90 7 92 q -10 97 -6 112 q -3 124 5 136 l 7 139 l 30 163 q 37 171 44 183 q 51 195 63 220 q 71 237 79 260 q 87 283 90 300 q 93 316 98 340 q 103 364 118 364 q 127 364 148 358 q 169 353 187 349 z"},"U":{"x_min":0,"x_max":594,"ha":594,"o":"m 179 704 l 202 704 q 237 698 250 686 q 263 675 263 647 q 263 613 228 473 q 226 464 223 448 q 220 433 217 416 q 211 372 208 325 q 205 278 205 250 q 205 205 209 178 q 213 151 221 130 q 234 97 257 80 q 280 63 310 63 q 336 63 363 78 q 413 106 449 198 q 493 309 522 527 l 528 585 q 528 682 537 708 q 546 734 579 745 q 590 748 597 748 q 616 748 616 737 q 616 636 602 512 q 588 389 552 179 q 546 147 535 39 l 553 41 q 562 41 572 38 q 581 35 577 19 q 574 7 559 -1 q 544 -9 514 -9 q 507 -9 499 -8 q 491 -7 486 -7 q 471 -4 464 14 q 456 32 456 81 l 456 89 q 410 39 336 4 q 303 -11 271 -11 q 207 -11 166 43 q 122 102 122 206 q 122 325 127 397 q 132 469 152 578 z"},"o":{"x_min":0,"x_max":474,"ha":474,"o":"m 304 394 l 354 404 q 362 406 370 406 q 377 406 381 406 q 486 406 486 285 q 486 254 479 220 q 467 163 444 123 q 420 83 379 49 q 303 -13 223 -13 q 207 -13 190 -10 q 123 1 94 28 q 66 55 66 107 q 66 119 67 126 l 70 142 l 55 127 l 53 125 q 31 99 23 93 q 15 87 7 89 q -6 92 -6 106 q -6 117 4 134 q 6 138 15 147 q 42 174 74 205 q 76 207 81 212 q 86 217 96 230 q 105 244 111 258 q 117 271 130 309 l 139 329 q 150 353 164 368 q 203 410 228 426 q 252 443 273 443 q 287 443 298 434 q 309 425 309 411 q 309 402 304 394 z m 418 182 q 422 202 422 223 q 422 267 404 294 q 385 320 362 324 q 340 329 329 329 q 313 329 301 324 q 289 319 281 310 q 264 289 257 282 q 250 275 246 273 q 222 258 216 250 q 209 241 198 206 q 188 171 188 141 q 188 122 192 110 q 210 44 257 44 q 288 44 336 71 q 405 109 418 182 z"},"N":{"x_min":0,"x_max":640,"ha":640,"o":"m 61 -56 q 69 12 78 68 q 86 125 105 236 l 122 335 l 130 380 l 143 449 l 156 517 q 167 573 171 599 q 175 625 175 640 l 176 670 q 176 683 199 697 q 227 714 264 714 q 296 714 304 699 q 312 684 333 589 q 338 569 342 555 q 361 496 381 438 l 394 400 l 432 287 q 456 218 470 190 q 483 163 508 129 q 521 150 530 177 q 538 204 553 278 q 588 450 588 496 q 588 644 598 685 q 608 726 637 731 q 648 733 657 729 q 666 725 665 719 q 665 625 662 566 q 658 508 649 444 q 648 435 630 322 l 619 257 q 587 79 585 71 q 572 5 551 -4 q 530 -13 517 -18 q 504 -22 496 -22 q 468 -22 439 44 q 432 61 389 171 l 341 300 l 320 358 l 290 446 l 287 454 l 270 492 q 258 463 250 438 q 241 413 224 354 l 207 294 l 187 224 q 172 169 164 136 q 155 104 152 85 q 135 3 120 -30 q 104 -63 83 -63 q 75 -63 61 -56 z"},"G":{"x_min":0,"x_max":682,"ha":682,"o":"m 588 253 q 601 255 607 254 q 639 254 651 248 q 663 241 663 221 q 663 208 657 184 q 655 176 648 152 q 646 147 642 128 q 634 93 627 58 l 618 9 l 607 -48 q 591 -137 591 -155 q 583 -244 576 -262 q 569 -279 532 -290 q 519 -294 504 -293 q 486 -290 486 -276 l 494 -218 l 502 -138 l 505 -101 l 509 -56 l 513 2 l 514 24 q 515 29 515 53 q 515 77 516 92 l 509 82 q 483 48 447 28 q 411 8 360 1 q 337 -2 316 -2 q 214 -2 148 64 q 83 131 83 242 q 83 468 194 609 q 295 738 433 738 q 464 738 491 731 q 569 713 614 661 l 616 658 l 657 601 q 689 554 689 538 q 689 523 664 501 q 631 472 606 472 q 592 472 588 481 l 577 515 q 571 535 569 540 q 561 556 557 566 q 550 582 544 594 q 542 598 529 620 q 492 679 427 679 q 396 679 365 664 q 334 648 305 615 q 261 564 234 506 q 208 447 198 378 q 192 333 192 298 q 192 242 207 197 q 226 135 272 99 q 319 63 373 63 q 416 63 454 89 q 475 103 508 138 q 527 157 560 208 l 579 237 z"},"q":{"x_min":0,"x_max":539,"ha":539,"o":"m 455 143 l 447 117 l 442 96 l 440 90 l 428 42 l 421 16 q 430 33 438 42 q 446 50 479 78 l 508 106 l 530 129 q 534 133 541 133 q 551 133 556 124 q 561 115 561 109 q 561 97 548 82 q 536 68 504 42 q 492 32 482 22 q 471 13 460 0 l 431 -36 l 434 -44 l 437 -57 l 455 -138 q 461 -180 461 -213 q 461 -271 442 -300 q 422 -328 386 -328 q 376 -329 372 -329 q 291 -329 291 -229 q 291 -214 291 -199 q 294 -185 295 -178 q 300 -146 306 -125 q 318 -92 325 -68 l 341 -21 l 366 46 l 372 63 l 374 67 l 380 89 q 350 62 311 38 l 284 23 l 281 22 l 229 0 q 196 -15 158 -15 q 118 -15 90 13 q 62 41 62 86 q 62 102 64 112 q 66 122 70 132 q 74 142 82 153 l 59 130 l 27 96 l 11 92 q -8 96 -3 116 q -2 121 2 128 q 5 133 10 139 l 64 191 l 71 198 l 143 260 l 146 263 q 216 319 264 344 q 312 368 347 378 q 382 388 406 388 q 455 384 472 380 q 490 375 494 367 q 500 355 490 353 l 420 334 q 406 331 382 320 q 359 309 328 290 q 316 283 309 278 q 302 274 288 263 q 259 241 242 224 q 225 206 214 188 q 199 163 192 147 q 185 131 183 118 q 181 105 181 100 q 181 77 193 66 q 205 55 224 59 q 242 62 260 72 q 278 83 307 102 q 322 112 345 135 q 375 164 415 209 l 427 225 q 457 266 471 266 q 476 266 494 259 q 521 248 521 233 q 521 216 493 185 l 467 154 l 462 149 z m 396 -277 q 416 -262 424 -248 q 433 -233 433 -208 q 433 -179 420 -130 l 407 -74 l 398 -106 q 381 -174 381 -213 q 381 -247 396 -277 z"},"d":{"x_min":0,"x_max":545,"ha":545,"o":"m 302 407 l 304 418 l 305 428 l 310 453 l 315 484 q 329 548 343 594 q 349 615 356 631 q 360 641 365 652 q 387 698 396 713 q 405 728 415 736 q 425 743 435 743 q 450 743 458 732 q 466 720 466 706 q 467 692 467 679 q 467 658 467 645 q 467 630 464 612 q 460 595 447 538 q 438 497 414 423 l 393 362 l 391 356 l 384 321 l 393 258 l 400 209 l 403 191 l 407 173 q 414 143 418 130 q 422 118 427 107 q 441 83 462 83 q 483 83 503 101 q 523 119 526 122 q 537 132 540 136 q 543 141 550 141 q 558 141 566 133 q 570 129 570 121 q 570 107 556 93 l 527 63 l 525 61 q 475 15 440 15 q 403 15 367 66 q 356 81 342 111 q 329 141 320 175 l 315 193 l 312 211 l 291 162 l 258 102 q 217 40 186 13 q 156 -14 129 -14 q 120 -14 111 -11 q 55 4 55 69 q 55 90 61 119 l 65 134 l 52 120 q 32 99 26 94 q 19 89 11 90 q -9 94 -3 113 q 2 128 10 136 l 23 150 l 59 189 l 65 195 l 116 256 l 131 273 q 199 346 229 369 q 259 392 302 407 z m 260 298 l 229 256 l 200 215 l 195 207 l 189 198 q 164 152 154 128 q 145 105 145 89 q 145 80 147 74 q 147 73 154 57 q 172 66 181 76 q 190 86 210 117 l 240 165 l 247 177 l 280 235 l 293 260 l 302 277 l 301 292 l 300 306 l 299 325 l 298 343 l 262 301 z"},"1":{"x_min":0,"x_max":580,"ha":580,"o":"m 170 486 q 192 514 210 534 q 227 553 263 587 l 295 618 l 315 636 l 342 660 l 365 680 l 405 717 q 419 729 438 729 q 446 729 455 726 q 480 718 489 693 q 489 606 478 525 q 467 444 438 324 q 418 236 387 134 q 372 85 366 62 q 360 40 358 27 q 356 14 345 6 q 334 -3 309 -10 q 297 -13 286 -13 q 281 -13 276 -13 q 269 -11 266 -11 l 280 43 l 299 115 q 342 291 360 398 q 378 506 378 606 q 343 591 306 566 q 270 541 221 497 l 192 470 z"},"5":{"x_min":0,"x_max":585,"ha":585,"o":"m 94 54 q 94 78 126 83 q 159 88 194 93 q 230 98 274 114 q 317 130 384 163 q 415 179 430 196 q 445 214 445 231 q 445 249 432 263 q 410 287 388 302 q 345 333 324 344 q 303 356 253 380 l 229 392 q 182 417 164 440 q 145 462 145 496 q 145 513 148 534 q 151 556 162 585 q 193 669 202 680 q 212 690 270 699 l 311 705 l 330 708 q 364 712 397 715 q 430 718 466 718 l 532 718 q 537 718 541 712 q 545 705 545 695 q 545 688 542 680 q 534 657 516 646 q 499 635 456 628 l 425 624 l 410 622 l 320 610 q 276 610 266 598 q 255 586 245 526 q 243 512 243 505 q 243 481 255 455 q 289 443 324 426 q 360 410 393 391 q 448 360 477 335 q 564 266 564 203 q 564 140 475 91 q 416 57 367 41 q 259 5 214 5 q 171 5 121 35 q 112 40 107 43 q 105 45 94 54 z"}}}
